<?xml version="1.0" encoding="UTF-8"?>
<svg xmlns="http://www.w3.org/2000/svg" viewBox="0 0 906 180">
  <path d="M0,0V180H180V0H0ZM169.94,169.48c-50.32-2.48-90.76-43.15-92.9-93.57h.1c34.56-2.63,62.04-30.94,63.35-65.85h29.46V169.48ZM77.18,65.82c2.51-28.13,24.97-50.59,53.09-53.11-2.51,28.13-24.97,50.59-53.09,53.11ZM10.06,10.06H104.13c-15.4,7.96-27.42,21.57-33.29,38.08-7.75-12.92-21.89-21.59-38.02-21.59h-5.03v5.03c0,22.68,17.11,41.42,39.1,44.01v.52h.1c1.69,41.7,27.12,77.38,63.11,93.83H10.06V10.06Zm56.59,55.36c-14.53-2.34-26.03-13.84-28.36-28.38,14.53,2.34,26.03,13.84,28.36,28.38Z"/>
  <g>
    <path d="M325.64,51.25l-55.26,122.23h-11.94l-55.03-122.23h12.41l48.7,109.35,49.17-109.35h11.94Z"/>
    <path d="M343.65,12.14c0-5.15,4.21-9.6,9.6-9.6s9.6,4.21,9.6,9.37-4.21,9.6-9.6,9.6-9.6-4.21-9.6-9.37Zm3.75,39.1h11.71v122.23h-11.71V51.25Z"/>
    <path d="M457.44,50.31v11.47c-.94,0-1.87-.23-2.81-.23-27.16,0-43.32,18.03-43.32,48.23v63.69h-11.71V51.25h11.24v26.69c7.49-17.8,23.65-27.63,46.6-27.63Z"/>
    <path d="M479.31,12.14c0-5.15,4.21-9.6,9.6-9.6s9.6,4.21,9.6,9.37-4.21,9.6-9.6,9.6-9.6-4.21-9.6-9.37Zm3.75,39.1h11.71v122.23h-11.71V51.25Z"/>
    <path d="M646.28-.27V173.47h-11.47v-28.8c-9.6,18.97-28.1,29.74-50.11,29.74-34.42,0-60.41-25.52-60.41-62.05s25.99-62.05,60.41-62.05c21.78,0,40.04,10.77,49.87,29.27V-.27h11.71Zm-11.71,112.63c0-30.67-21.07-51.51-49.17-51.51s-49.17,20.84-49.17,51.51,21.07,51.51,49.17,51.51,49.17-20.84,49.17-51.51Z"/>
    <path d="M793.84,115.17h-105.13c1.17,29.03,22.48,48.7,51.75,48.7,15.45,0,29.74-5.62,39.1-17.09l6.79,7.73c-10.77,13.11-27.63,19.9-46.13,19.9-37,0-62.99-25.76-62.99-62.05s25.05-62.05,58.54-62.05,58.3,25.29,58.3,61.58c0,.94-.23,2.11-.23,3.28Zm-104.9-9.13h93.66c-1.64-26.46-20.84-45.43-46.83-45.43s-44.96,18.73-46.83,45.43Z"/>
    <path d="M808.83,158.72l5.39-9.37c9.37,7.96,25.99,14.75,44.02,14.75,25.76,0,36.06-9.13,36.06-22.95,0-35.59-81.02-9.37-81.02-57.37,0-18.5,15.45-33.48,46.36-33.48,15.45,0,32.31,4.68,41.91,11.94l-5.39,9.37c-10.3-7.49-23.65-11-36.76-11-23.88,0-34.42,9.83-34.42,22.95,0,36.76,81.02,10.77,81.02,57.37,0,19.9-17.09,33.48-48.23,33.48-20.14,0-39.34-6.79-48.94-15.69Z"/>
  </g>
</svg>
